<?xml version="1.0" standalone="no"?>
<!DOCTYPE svg PUBLIC "-//W3C//DTD SVG 20010904//EN"
 "http://www.w3.org/TR/2001/REC-SVG-20010904/DTD/svg10.dtd">
<svg version="1.0" xmlns="http://www.w3.org/2000/svg"
 width="600.000000pt" height="192.000000pt" viewBox="0 0 600.000000 192.000000"
 preserveAspectRatio="xMidYMid meet">

<g transform="translate(0.000000,192.000000) scale(0.100000,-0.100000)"
fill="#000000" stroke="none">
<path d="M790 1750 c-97 -25 -219 -87 -298 -150 -354 -287 -383 -839 -60
-1157 79 -79 116 -106 198 -148 126 -64 198 -80 355 -80 119 0 151 4 215 23
346 109 561 396 563 752 0 140 -18 220 -78 345 -101 209 -285 358 -509 415
-106 27 -281 27 -386 0z m319 -500 c22 -11 48 -35 60 -53 20 -32 21 -48 21
-255 0 -191 -2 -221 -16 -226 -9 -3 -140 -6 -293 -6 -267 0 -278 1 -321 23
-82 42 -85 49 -88 294 -2 154 0 219 9 229 9 11 63 14 301 14 268 0 292 -1 327
-20z m371 -254 c0 -151 -4 -277 -9 -280 -4 -3 -62 34 -129 82 l-121 87 0 105
-1 105 118 87 c64 48 123 87 130 87 9 1 12 -60 12 -273z"/>
<path d="M2050 1298 c9 -62 26 -87 73 -109 37 -16 68 -19 252 -19 l210 0 -248
-248 c-240 -240 -247 -248 -247 -287 0 -22 9 -54 20 -72 38 -62 43 -63 425
-63 l345 0 0 36 c0 45 -30 96 -67 114 -20 10 -90 16 -246 20 l-217 5 245 245
c239 238 245 246 245 285 0 22 -9 54 -20 73 -37 60 -52 62 -433 62 l-344 0 7
-42z"/>
<path d="M3136 1321 c-152 -50 -258 -174 -287 -335 -33 -177 68 -369 236 -448
129 -60 296 -47 409 32 128 89 191 216 184 370 -7 157 -92 286 -234 356 -63
32 -84 37 -161 40 -68 3 -101 0 -147 -15z m206 -163 c51 -15 126 -82 149 -133
25 -54 25 -156 0 -210 -40 -89 -127 -144 -226 -145 -134 0 -238 93 -252 225
-19 179 152 316 329 263z"/>
<path d="M4013 1320 c-100 -33 -194 -115 -245 -214 -28 -55 -50 -170 -43 -225
39 -285 314 -453 578 -351 81 31 177 121 219 208 31 64 33 72 33 182 0 109 -2
118 -32 181 -41 83 -120 160 -209 201 -88 41 -208 48 -301 18z m243 -173 c85
-44 138 -134 137 -233 -1 -185 -194 -301 -361 -218 -185 92 -185 355 0 449 46
23 62 26 123 22 39 -2 84 -11 101 -20z"/>
<path d="M4610 921 l0 -421 34 0 c39 0 95 35 113 70 9 17 13 81 13 205 1 285
14 335 104 382 41 21 124 13 165 -16 61 -44 65 -62 71 -321 4 -212 7 -238 25
-264 22 -32 70 -56 114 -56 l30 0 3 284 c3 269 4 286 24 312 36 49 70 67 131
72 48 3 64 0 92 -20 75 -51 75 -53 82 -316 3 -144 9 -245 16 -257 23 -41 61
-67 108 -73 l46 -5 -3 299 c-3 282 -4 302 -25 346 -30 66 -96 133 -162 165
-49 24 -68 28 -146 28 -83 0 -95 -3 -152 -34 -34 -18 -69 -42 -79 -52 -16 -18
-18 -17 -61 16 -71 54 -145 78 -228 73 -41 -3 -91 -14 -121 -27 l-51 -22 -34
20 c-19 11 -51 23 -71 26 l-38 7 0 -421z"/>
</g>
</svg>
